<svg width="34" height="34" xmlns="http://www.w3.org/2000/svg" viewBox="0 0 242.667 242.667"><path d="M0 0v242.667h242.667V0H0zm155.336 148.425c-18.516 9.562-33.542 4.857-37.488 2.884-3.946-1.973-7.285-6.678-7.285-6.678s-4.553 19.579-8.196 29.748-15.481 23.828-15.481 23.828-3.794-15.329-1.062-32.024 11.535-52.665 11.535-52.665-5.312-10.624-.911-21.097c4.401-10.472 11.99-15.329 22.007-11.535 10.017 3.794 5.16 18.061 4.098 21.552-1.062 3.491-8.044 21.4-5.919 27.623 2.125 6.223 16.847 19.427 34.604-4.857 17.758-24.284 7.93-50.389-6.981-59.951-10.654-6.831-36.547-14.316-55.397 6.982-23.373 26.409-2.732 49.175-2.732 49.175l-5.464 12.749s-22.159-4.401-20.186-36.881c1.973-32.48 32.783-52.969 61.62-52.817 28.837.152 48.568 15.633 57.522 38.55 8.955 22.918-5.768 55.853-24.284 65.414z"/></svg>